<svg xmlns="http://www.w3.org/2000/svg" aria-hidden="true" style="position:absolute;width:0;height:0;overflow:hidden"><defs><symbol id="icon-facebook" viewBox="0 0 32 32"><path d="M21.329 5.313h2.921V.226c-.504-.071-2.237-.227-4.256-.227-4.212 0-7.097 2.649-7.097 7.52v4.48H8.249v5.688h4.648v14.312h5.699V17.688h4.46L23.764 12h-5.169V8.081c.001-1.644.444-2.769 2.735-2.769z"/></symbol><symbol id="icon-instagram" viewBox="0 0 32 32"><path d="M31.969 9.408c-.076-1.7-.351-2.869-.744-3.881a7.84 7.84 0 0 0-1.849-2.837l-.001-.001A7.89 7.89 0 0 0 26.597.863l-.054-.018C25.524.452 24.362.176 22.662.101c-1.715-.08-2.257-.1-6.601-.1-4.345 0-4.889.019-6.596.093-1.7.076-2.869.351-3.881.744a7.84 7.84 0 0 0-2.837 1.849l-.001.001A7.89 7.89 0 0 0 .92 5.466l-.018.054C.509 6.539.234 7.701.158 9.401c-.08 1.713-.1 2.257-.1 6.601 0 4.345.019 4.889.093 6.596.076 1.7.351 2.869.745 3.881a7.93 7.93 0 0 0 1.848 2.838l.001.001a7.867 7.867 0 0 0 2.832 1.844c1.019.393 2.181.668 3.883.744 1.707.075 2.251.093 6.595.093s4.888-.019 6.595-.093c1.701-.076 2.869-.351 3.883-.744a8.231 8.231 0 0 0 4.662-4.627l.019-.055c.395-1.019.669-2.181.744-3.881.075-1.707.093-2.251.093-6.596 0-4.344-.005-4.888-.08-6.595zm-2.882 13.065c-.068 1.563-.331 2.407-.549 2.969a5.337 5.337 0 0 1-3.003 3.026l-.036.013c-.563.219-1.413.48-2.969.549-1.688.075-2.193.093-6.464.093-4.269 0-4.781-.019-6.464-.093-1.563-.069-2.407-.331-2.969-.549a4.947 4.947 0 0 1-1.836-1.193l-.001-.001a4.982 4.982 0 0 1-1.182-1.803l-.011-.034c-.22-.563-.481-1.413-.551-2.969-.075-1.688-.093-2.195-.093-6.464s.019-4.783.093-6.464c.069-1.563.331-2.407.551-2.969a4.887 4.887 0 0 1 1.2-1.839 4.982 4.982 0 0 1 1.803-1.182l.034-.011c.563-.219 1.413-.48 2.969-.549 1.688-.076 2.195-.093 6.464-.093 4.276 0 4.781.017 6.464.093 1.563.068 2.407.331 2.969.549a4.912 4.912 0 0 1 1.837 1.195 4.993 4.993 0 0 1 1.195 1.837c.219.563.48 1.413.549 2.969.076 1.688.093 2.195.093 6.464s-.017 4.769-.093 6.457z"/><path d="M16.059 7.783a8.224 8.224 0 0 0-8.22 8.22 8.222 8.222 0 0 0 8.22 8.221 8.222 8.222 0 0 0 8.221-8.221 8.223 8.223 0 0 0-8.221-8.22zm0 13.553a5.333 5.333 0 0 1 .001-10.666h.001a5.333 5.333 0 0 1-.001 10.666h-.001zM26.524 7.457l.001.051a1.92 1.92 0 0 1-3.84 0l.001-.053v.003a1.92 1.92 0 0 1 3.838-.002v.003z"/></symbol><symbol id="icon-linkedin" viewBox="0 0 32 32"><path d="M31.992 32H32V20.263c0-5.741-1.236-10.164-7.948-10.164-3.227 0-5.392 1.771-6.276 3.449h-.093v-2.913h-6.364V32h6.627V21.421c0-2.785.528-5.479 3.977-5.479 3.399 0 3.449 3.179 3.449 5.657v10.4h6.62zM.528 10.636h6.635V32H.528V10.636zM3.843 0A3.845 3.845 0 0 0 0 3.843c0 2.121 1.721 3.88 3.843 3.88s3.843-1.759 3.843-3.88A3.846 3.846 0 0 0 3.843 0z"/></symbol><symbol id="icon-twitter" viewBox="0 0 32 32"><path d="M32 6.079a13.728 13.728 0 0 1-3.78 1.036 6.563 6.563 0 0 0 2.874-3.581l.013-.046a12.858 12.858 0 0 1-4.076 1.574l-.084.014a6.559 6.559 0 0 0-11.348 4.481v.005c0 .52.044 1.021.152 1.497-5.455-.267-10.28-2.88-13.523-6.863a6.57 6.57 0 0 0 2.016 8.769 6.457 6.457 0 0 1-2.996-.827l.032.017v.072a6.594 6.594 0 0 0 5.213 6.439l.043.008a6.5 6.5 0 0 1-1.72.216l-.104.001c-.403 0-.797-.041-1.176-.119l.037.006c.851 2.597 3.263 4.507 6.131 4.569a13.098 13.098 0 0 1-8.121 2.799H1.57h.001c-.539 0-1.055-.024-1.571-.091 2.826 1.846 6.287 2.944 10.004 2.944h.063-.003c12.072 0 18.672-10 18.672-18.667 0-.291-.011-.571-.024-.849a13.191 13.191 0 0 0 3.258-3.356L32 6.08z"/></symbol></defs></svg>